<?xml version="1.0" standalone="no"?>
<!DOCTYPE svg PUBLIC "-//W3C//DTD SVG 20010904//EN"
 "http://www.w3.org/TR/2001/REC-SVG-20010904/DTD/svg10.dtd">
<svg version="1.0" xmlns="http://www.w3.org/2000/svg"
 width="774.000000pt" height="474.000000pt" viewBox="0 0 774.000000 474.000000"
 preserveAspectRatio="xMidYMid meet">

<g transform="translate(0.000000,474.000000) scale(0.100000,-0.100000)"
fill="#000000" stroke="none">
<path d="M585 4646 c-261 -61 -397 -216 -326 -373 53 -116 234 -209 440 -225
34 -3 38 -8 142 -188 60 -102 108 -188 108 -192 1 -5 -75 -8 -169 -8 l-170 0
0 -305 0 -305 254 -2 254 -3 -200 -215 -200 -215 -112 -6 c-134 -7 -198 -21
-293 -64 -240 -110 -297 -342 -122 -499 62 -56 117 -85 214 -115 78 -25 244
-37 313 -24 32 6 5 8 -100 9 -127 0 -152 3 -224 27 -189 63 -294 173 -294 312
0 139 105 249 294 312 72 23 97 26 221 27 126 0 148 -3 221 -27 172 -57 293
-174 294 -284 0 -18 4 -33 9 -33 5 0 5 20 0 45 -25 136 -152 244 -345 293
l-71 18 206 222 206 222 135 0 135 0 222 -268 223 -267 -73 -12 c-139 -22
-228 -64 -296 -139 -93 -102 -94 -214 -4 -314 137 -152 435 -195 649 -94 110
52 194 157 194 243 0 153 -163 282 -391 308 l-65 8 -130 155 c-72 85 -172 205
-222 265 l-91 110 299 3 300 2 0 150 0 150 395 0 395 0 200 -100 200 -100 0
-745 0 -745 -225 0 -225 0 0 -254 0 -255 43 -3 c46 -3 -778 -178 -929 -197
-159 -20 -291 -100 -340 -205 -30 -64 -30 -118 0 -181 82 -178 388 -266 633
-182 151 52 253 161 253 272 0 125 -138 253 -311 289 -32 6 -60 14 -63 17 -3
3 191 47 432 97 l437 92 148 0 c81 0 147 -1 147 -2 0 -2 -11 -88 -25 -192 -14
-104 -25 -191 -25 -193 0 -1 -15 -3 -32 -3 -55 0 -163 -27 -221 -54 -111 -53
-197 -159 -197 -245 0 -120 101 -228 265 -283 98 -32 280 -33 375 -1 93 31
153 67 203 123 89 99 89 211 0 310 -72 80 -186 133 -320 146 l-65 7 6 31 c3
17 12 87 21 156 8 69 18 142 21 163 l6 37 106 0 c98 0 145 -8 534 -92 235 -50
425 -95 423 -99 -3 -3 -24 -9 -49 -12 -169 -23 -326 -164 -326 -292 0 -58 40
-134 95 -183 98 -87 235 -128 395 -119 190 11 338 90 396 212 30 63 30 117 0
180 -54 114 -196 196 -365 211 -36 3 -259 47 -495 97 -425 91 -428 92 -347 95
l81 3 0 254 0 255 -225 0 -225 0 0 745 0 744 208 105 207 105 388 1 387 0 0
-155 0 -155 266 0 c248 0 265 -1 260 -17 -3 -10 -44 -119 -89 -243 l-84 -224
-85 -12 c-166 -24 -295 -102 -344 -208 -30 -64 -30 -118 0 -181 63 -137 253
-223 466 -212 190 11 338 90 396 212 30 63 30 117 0 180 -53 112 -192 194
-361 211 l-62 6 52 142 c29 77 69 187 90 244 l37 102 88 0 87 0 312 -246 c172
-135 314 -244 316 -242 2 2 -133 112 -301 243 l-304 240 122 3 123 3 520 -167
c1107 -353 1014 -322 970 -329 -179 -28 -301 -101 -351 -210 -30 -63 -30 -117
0 -180 75 -161 326 -250 564 -200 107 22 176 57 240 122 85 85 103 163 58 258
-44 95 -156 171 -294 201 -37 7 -83 14 -103 14 -25 0 -1411 432 -1554 485 -5
2 32 4 83 4 l92 1 0 305 0 304 -109 3 -110 3 607 142 c334 79 638 145 677 149
177 16 336 100 390 207 32 66 32 118 -1 186 -42 83 -155 157 -294 192 -71 18
-278 18 -350 0 -137 -33 -261 -118 -301 -204 -70 -155 74 -321 326 -372 44 -9
80 -17 82 -18 1 -2 -269 -67 -600 -145 l-602 -143 -149 3 -150 3 190 141 189
141 66 7 c221 21 389 154 389 307 0 48 -41 127 -86 171 -44 41 -134 88 -209
109 -29 8 -97 14 -165 14 -94 0 -128 -4 -185 -23 -123 -41 -201 -101 -241
-187 -30 -63 -30 -117 0 -180 51 -108 168 -180 340 -209 l69 -11 -190 -143
-190 -142 -149 0 -148 0 -308 142 -308 143 82 16 c197 39 338 162 338 294 0
89 -81 195 -188 246 -159 75 -371 77 -525 5 -115 -55 -197 -159 -197 -251 0
-92 81 -196 194 -249 61 -29 168 -56 226 -56 23 0 136 -47 343 -142 l308 -143
-135 -3 -136 -3 0 -144 0 -145 -405 0 -405 0 -193 96 -192 96 -203 -101 -202
-101 -395 0 -395 0 0 150 0 150 -170 0 c-93 0 -170 3 -170 6 0 3 50 90 110
193 l110 188 98 6 c156 9 276 59 355 147 70 78 84 158 43 245 -111 237 -566
291 -791 93 -55 -49 -95 -125 -95 -183 0 -125 138 -253 312 -289 32 -6 59 -16
59 -21 0 -6 -49 -94 -108 -197 l-108 -187 -351 -1 -351 0 -12 27 c-7 15 -55
99 -107 188 -52 89 -94 164 -94 167 0 3 28 9 63 12 129 15 227 51 313 116 84
63 123 167 93 247 -33 90 -129 166 -262 209 -102 32 -278 42 -372 20z m360
-26 c368 -114 365 -417 -5 -531 -109 -34 -303 -34 -410 0 -99 31 -143 54 -198
104 -179 165 -51 379 269 447 74 16 265 4 344 -20z m1205 2 c129 -45 194 -94
234 -174 32 -65 33 -118 2 -183 -37 -80 -112 -135 -246 -181 -78 -27 -272 -27
-350 0 -130 44 -210 103 -246 180 -31 67 -30 119 2 184 45 91 167 167 314 196
57 11 236 -3 290 -22z m2029 -82 c77 -13 180 -58 237 -105 51 -42 94 -124 94
-180 0 -172 -236 -311 -495 -291 -173 13 -315 88 -369 198 -33 67 -33 119 0
186 73 147 301 229 533 192z m1412 -14 c65 -20 143 -61 183 -96 45 -40 86
-123 86 -175 0 -115 -117 -229 -285 -276 -66 -18 -254 -18 -320 0 -126 36
-224 105 -261 186 -31 65 -30 118 2 183 30 61 75 102 152 140 50 25 77 34 167
56 37 9 230 -3 276 -18z m1224 -6 c92 -29 130 -49 187 -99 114 -101 116 -226
3 -329 -52 -49 -97 -73 -195 -103 -108 -34 -302 -34 -410 -1 -213 67 -321 204
-266 336 19 46 80 112 131 142 50 29 142 61 210 74 83 15 260 4 340 -20z
m-4805 -1165 l0 -295 -695 0 -695 0 0 295 0 295 695 0 695 0 0 -295z m3600 0
l0 -295 -595 0 -595 0 0 295 0 295 595 0 595 0 0 -295z m-2202 -96 l-193 -97
-192 97 -193 96 192 96 193 97 192 -97 193 -96 -192 -96z m1543 -737 c123 -44
195 -97 233 -174 33 -67 33 -119 0 -186 -40 -81 -111 -133 -244 -178 -69 -23
-259 -26 -335 -5 -69 20 -157 65 -201 103 -46 40 -84 119 -84 174 0 88 73 181
185 236 44 22 72 31 160 52 47 12 231 -3 286 -22z m2142 13 c141 -30 247 -98
291 -187 33 -67 33 -119 0 -186 -96 -192 -448 -262 -695 -137 -98 50 -169 147
-169 230 0 56 43 138 93 179 123 99 306 138 480 101z m-5090 -51 c180 -41 307
-156 307 -279 0 -87 -72 -181 -179 -235 -151 -76 -363 -79 -517 -6 -89 42
-136 83 -168 148 -33 67 -33 119 0 186 45 91 175 172 314 195 60 10 177 6 243
-9z m1657 -1079 l0 -245 -445 0 -445 0 0 245 0 245 445 0 445 0 0 -245z
m-1509 -483 c123 -44 195 -97 233 -174 33 -67 33 -119 0 -186 -40 -81 -111
-133 -244 -178 -69 -23 -259 -26 -335 -5 -69 20 -157 65 -201 103 -46 40 -84
119 -84 174 0 88 73 181 185 236 44 22 72 31 160 52 47 12 231 -3 286 -22z
m2400 0 c123 -44 195 -97 233 -174 33 -67 33 -119 0 -186 -40 -81 -111 -133
-244 -178 -69 -23 -259 -26 -335 -5 -69 20 -157 65 -201 103 -46 40 -84 119
-84 174 0 119 132 240 304 280 84 19 253 12 327 -14z m-1248 -188 c83 -19 171
-60 221 -104 45 -40 86 -123 86 -175 0 -52 -41 -135 -86 -175 -42 -37 -131
-82 -199 -101 -66 -18 -254 -18 -320 0 -123 35 -225 107 -261 185 -31 66 -30
119 2 184 77 155 326 238 557 186z"/>
<path d="M342 4393 c12 -3 18 -17 21 -46 l4 -42 1 42 c2 30 7 43 20 46 9 3 -1
5 -23 5 -22 0 -32 -2 -23 -5z"/>
<path d="M463 4355 c0 -27 2 -38 4 -22 2 15 2 37 0 50 -2 12 -4 0 -4 -28z"/>
<path d="M558 4388 c-2 -7 -1 -29 3 -48 l6 -35 2 33 c0 17 1 35 0 38 0 4 5 11
13 15 10 7 9 9 -3 9 -9 0 -19 -6 -21 -12z"/>
<path d="M407 4374 c-4 -4 -7 -18 -7 -31 0 -26 26 -41 42 -25 8 8 5 9 -11 5
-12 -3 -21 -1 -21 6 0 6 9 11 21 11 14 0 19 5 17 17 -3 19 -29 29 -41 17z m28
-14 c3 -5 -1 -10 -9 -10 -9 0 -16 5 -16 10 0 6 4 10 9 10 6 0 13 -4 16 -10z"/>
<path d="M497 4374 c-4 -4 -7 -18 -7 -31 0 -26 26 -41 42 -25 8 8 5 9 -11 5
-12 -3 -21 -1 -21 6 0 6 9 11 21 11 14 0 19 5 17 17 -3 19 -29 29 -41 17z m33
-14 c0 -5 -7 -10 -15 -10 -8 0 -15 5 -15 10 0 6 7 10 15 10 8 0 15 -4 15 -10z"/>
<path d="M594 4366 c-10 -26 0 -51 21 -51 16 0 20 7 20 30 0 33 -30 49 -41 21z
m36 -21 c0 -16 -6 -25 -15 -25 -9 0 -15 9 -15 25 0 16 6 25 15 25 9 0 15 -9
15 -25z"/>
<path d="M662 4343 c1 -38 1 -38 5 -5 5 40 25 38 35 -4 6 -27 6 -27 5 6 -2 28
-6 36 -24 38 -21 3 -23 -1 -21 -35z"/>
<path d="M721 4340 c1 -34 1 -34 8 -6 9 42 29 44 34 4 l4 -33 1 37 c2 35 0 38
-23 36 -22 -2 -25 -7 -24 -38z"/>
<path d="M793 4348 c1 -26 7 -33 25 -34 19 -1 22 3 21 35 -1 35 -2 35 -8 7 -8
-40 -28 -44 -35 -7 l-6 31 3 -32z"/>
<path d="M862 4343 c1 -35 2 -35 5 -7 3 26 8 31 33 31 25 0 30 -5 33 -31 4
-28 4 -28 3 4 -1 33 -3 35 -38 38 -38 2 -38 2 -36 -35z"/>
<path d="M962 4343 c1 -35 2 -35 5 -7 3 26 8 31 33 31 25 0 30 -5 33 -31 4
-28 4 -28 3 4 -1 33 -3 35 -38 38 -38 2 -38 2 -36 -35z"/>
<path d="M1067 4374 c-4 -4 -7 -18 -7 -31 0 -26 26 -41 42 -25 8 8 5 9 -11 5
-12 -3 -21 -1 -21 6 0 6 9 11 21 11 14 0 19 5 17 17 -3 19 -29 29 -41 17z m28
-14 c3 -5 -1 -10 -9 -10 -9 0 -16 5 -16 10 0 6 4 10 9 10 6 0 13 -4 16 -10z"/>
<path d="M1121 4343 c1 -28 3 -31 6 -13 3 14 10 31 15 38 8 9 6 12 -6 12 -12
0 -16 -9 -15 -37z"/>
<path d="M1785 4390 c-3 -5 -1 -10 4 -10 6 0 11 -7 11 -15 0 -18 -20 -20 -21
-2 0 6 -5 1 -10 -12 -5 -13 -8 -29 -5 -35 2 -6 5 -3 5 7 1 9 8 17 17 17 9 0
23 -8 30 -17 10 -13 9 -5 -2 30 -17 50 -19 53 -29 37z"/>
<path d="M1880 4391 c0 -5 -9 -11 -21 -14 -16 -4 -20 -12 -17 -33 2 -15 9 -29
16 -30 7 -1 8 0 2 3 -5 2 -10 16 -10 30 0 34 23 24 31 -13 5 -24 7 -20 8 19 0
26 -1 47 -4 47 -3 0 -5 -4 -5 -9z"/>
<path d="M1911 4343 c2 -35 2 -35 6 -8 3 16 10 33 16 37 8 5 6 8 -5 8 -14 0
-18 -8 -17 -37z"/>
<path d="M1957 4374 c-4 -4 -7 -18 -7 -31 0 -26 26 -41 42 -25 8 8 5 9 -11 5
-12 -3 -21 -1 -21 6 0 6 9 11 21 11 14 0 19 5 17 17 -3 19 -29 29 -41 17z m28
-14 c3 -5 -1 -10 -9 -10 -9 0 -16 5 -16 10 0 6 4 10 9 10 6 0 13 -4 16 -10z"/>
<path d="M2015 4370 c-9 -14 1 -27 25 -33 11 -3 18 -1 14 4 -3 5 -12 9 -20 9
-20 0 -18 18 4 23 15 4 15 5 0 6 -9 0 -20 -3 -23 -9z"/>
<path d="M2075 4370 c-9 -14 1 -27 25 -33 11 -3 18 -1 14 4 -3 5 -12 9 -20 9
-20 0 -18 18 4 23 15 4 15 5 0 6 -9 0 -20 -3 -23 -9z"/>
<path d="M2136 4362 c-12 -37 21 -72 39 -42 3 5 0 7 -8 4 -8 -3 -18 -1 -22 5
-3 7 3 11 15 11 15 0 20 5 18 17 -5 25 -35 28 -42 5z m34 -2 c0 -5 -7 -10 -16
-10 -8 0 -12 5 -9 10 3 6 10 10 16 10 5 0 9 -4 9 -10z"/>
<path d="M2018 4318 c5 -5 16 -8 23 -6 8 3 3 7 -10 11 -17 4 -21 3 -13 -5z"/>
<path d="M2078 4318 c5 -5 16 -8 23 -6 8 3 3 7 -10 11 -17 4 -21 3 -13 -5z"/>
<path d="M3921 4253 c2 -45 2 -46 8 -13 l6 35 20 -32 c11 -18 23 -33 27 -33 4
0 7 21 6 48 -1 36 -2 39 -5 15 -5 -41 -17 -42 -33 -3 -18 44 -30 37 -29 -17z"/>
<path d="M4016 4271 c-3 -5 3 -7 14 -4 11 3 20 0 20 -6 0 -6 -9 -11 -20 -11
-13 0 -20 -7 -20 -20 0 -15 6 -19 25 -18 22 2 26 7 23 33 -3 30 -30 47 -42 26z
m29 -41 c-3 -5 -10 -10 -16 -10 -5 0 -9 5 -9 10 0 6 7 10 16 10 8 0 12 -4 9
-10z"/>
<path d="M4071 4241 c1 -35 2 -35 8 -7 9 42 29 44 34 4 l5 -33 -2 35 c-1 29
-5 35 -23 36 -20 1 -23 -3 -22 -35z"/>
<path d="M4135 4270 c3 -5 8 -10 11 -10 2 0 4 5 4 10 0 6 -5 10 -11 10 -5 0
-7 -4 -4 -10z"/>
<path d="M4174 4256 c-3 -14 -3 -30 1 -35 8 -14 32 -14 40 -1 3 5 0 7 -8 4 -8
-3 -18 -1 -22 5 -3 7 3 11 15 11 15 0 20 5 18 17 -5 29 -36 28 -44 -1z m36 4
c0 -5 -7 -10 -16 -10 -8 0 -12 5 -9 10 3 6 10 10 16 10 5 0 9 -4 9 -10z"/>
<path d="M5230 4294 c0 -3 7 -12 15 -20 16 -17 18 -14 9 10 -6 15 -24 23 -24
10z"/>
<path d="M5333 4255 c0 -27 2 -38 4 -22 2 15 2 37 0 50 -2 12 -4 0 -4 -28z"/>
<path d="M5294 4266 c-8 -22 -1 -49 14 -52 7 -1 8 0 2 3 -14 7 -13 50 3 56 9
4 9 6 -1 6 -7 1 -15 -5 -18 -13z"/>
<path d="M5361 4243 c2 -35 2 -35 6 -8 3 16 10 33 16 37 8 5 6 8 -5 8 -14 0
-18 -8 -17 -37z"/>
<path d="M5407 4274 c-4 -4 -7 -18 -7 -31 0 -26 26 -41 42 -25 8 8 5 9 -11 5
-12 -3 -21 -1 -21 6 0 6 9 11 21 11 14 0 19 5 17 17 -3 19 -29 29 -41 17z m28
-14 c3 -5 -1 -10 -9 -10 -9 0 -16 5 -16 10 0 6 4 10 9 10 6 0 13 -4 16 -10z"/>
<path d="M5465 4270 c-9 -14 1 -27 25 -33 11 -3 18 -1 14 4 -3 5 -12 9 -20 9
-20 0 -18 18 4 23 15 4 15 5 0 6 -9 0 -20 -3 -23 -9z"/>
<path d="M5525 4270 c-9 -14 1 -27 25 -33 11 -3 18 -1 14 4 -3 5 -12 9 -20 9
-20 0 -18 18 4 23 15 4 15 5 0 6 -9 0 -20 -3 -23 -9z"/>
<path d="M5586 4262 c-12 -37 21 -72 39 -42 3 5 0 7 -8 4 -8 -3 -18 -1 -22 5
-3 7 3 11 15 11 15 0 20 5 18 17 -5 25 -35 28 -42 5z m34 -2 c0 -5 -7 -10 -16
-10 -8 0 -12 5 -9 10 3 6 10 10 16 10 5 0 9 -4 9 -10z"/>
<path d="M5216 4246 c-4 -15 -5 -31 -1 -34 3 -3 5 2 5 11 0 22 29 22 46 0 12
-16 12 -16 7 5 -3 12 -13 22 -23 22 -10 0 -20 6 -22 12 -3 7 -8 0 -12 -16z"/>
<path d="M5468 4218 c5 -5 16 -8 23 -6 8 3 3 7 -10 11 -17 4 -21 3 -13 -5z"/>
<path d="M5528 4218 c5 -5 16 -8 23 -6 8 3 3 7 -10 11 -17 4 -21 3 -13 -5z"/>
<path d="M6212 4293 c12 -3 18 -17 21 -46 l4 -42 1 42 c2 30 7 43 20 46 9 3
-1 5 -23 5 -22 0 -32 -2 -23 -5z"/>
<path d="M6333 4255 c0 -27 2 -38 4 -22 2 15 2 37 0 50 -2 12 -4 0 -4 -28z"/>
<path d="M6428 4288 c-2 -7 -1 -29 3 -48 l6 -35 2 33 c0 17 1 35 0 38 0 4 5
11 13 15 10 7 9 9 -3 9 -9 0 -19 -6 -21 -12z"/>
<path d="M6277 4274 c-4 -4 -7 -18 -7 -31 0 -26 26 -41 42 -25 8 8 5 9 -11 5
-12 -3 -21 -1 -21 6 0 6 9 11 21 11 14 0 19 5 17 17 -3 19 -29 29 -41 17z m28
-14 c3 -5 -1 -10 -9 -10 -9 0 -16 5 -16 10 0 6 4 10 9 10 6 0 13 -4 16 -10z"/>
<path d="M6367 4274 c-4 -4 -7 -18 -7 -31 0 -26 26 -41 42 -25 8 8 5 9 -11 5
-12 -3 -21 -1 -21 6 0 6 9 11 21 11 14 0 19 5 17 17 -3 19 -29 29 -41 17z m33
-14 c0 -5 -7 -10 -15 -10 -8 0 -15 5 -15 10 0 6 7 10 15 10 8 0 15 -4 15 -10z"/>
<path d="M6464 4266 c-10 -26 0 -51 21 -51 16 0 20 7 20 30 0 33 -30 49 -41
21z m36 -21 c0 -16 -6 -25 -15 -25 -9 0 -15 9 -15 25 0 16 6 25 15 25 9 0 15
-9 15 -25z"/>
<path d="M6532 4243 c1 -38 1 -38 5 -5 5 40 25 38 35 -4 6 -27 6 -27 5 6 -2
28 -6 36 -24 38 -21 3 -23 -1 -21 -35z"/>
<path d="M6591 4243 c1 -36 2 -36 8 -9 9 42 29 44 34 4 l4 -33 1 38 c2 33 0
37 -23 37 -22 0 -25 -4 -24 -37z"/>
<path d="M6663 4248 c1 -26 7 -33 25 -34 19 -1 22 3 21 35 -1 35 -2 35 -8 7
-8 -40 -28 -44 -35 -7 l-6 31 3 -32z"/>
<path d="M6733 4245 c0 -22 2 -30 4 -17 2 12 2 30 0 40 -3 9 -5 -1 -4 -23z"/>
<path d="M6757 4264 c4 -11 9 -12 16 -5 17 17 25 13 30 -16 4 -27 4 -27 3 2
-1 25 -5 30 -28 32 -20 1 -25 -2 -21 -13z"/>
<path d="M6832 4243 c1 -35 2 -35 5 -7 3 26 8 31 33 31 25 0 30 -5 33 -31 4
-28 4 -28 3 4 -1 33 -3 35 -38 38 -38 2 -38 2 -36 -35z"/>
<path d="M6937 4274 c-4 -4 -7 -18 -7 -31 0 -26 26 -41 42 -25 8 8 5 9 -11 5
-12 -3 -21 -1 -21 6 0 6 9 11 21 11 14 0 19 5 17 17 -3 19 -29 29 -41 17z m28
-14 c3 -5 -1 -10 -9 -10 -9 0 -16 5 -16 10 0 6 4 10 9 10 6 0 13 -4 16 -10z"/>
<path d="M6991 4243 c1 -28 3 -31 6 -13 3 14 10 31 15 38 8 9 6 12 -6 12 -12
0 -16 -9 -15 -37z"/>
<path d="M830 3355 c0 -45 1 -46 28 -43 24 3 27 7 27 43 0 36 -3 40 -27 43
-27 3 -28 2 -28 -43z m45 0 c0 -20 -6 -31 -17 -33 -15 -3 -18 4 -18 33 0 29 3
36 18 33 11 -2 17 -13 17 -33z"/>
<path d="M1322 3355 c0 -27 2 -43 5 -35 3 8 15 26 27 40 l21 25 -22 -18 c-21
-19 -22 -18 -26 10 -2 16 -4 7 -5 -22z"/>
<path d="M913 3345 c0 -22 2 -30 4 -17 2 12 2 30 0 40 -3 9 -5 -1 -4 -23z"/>
<path d="M946 3371 c-3 -5 3 -7 14 -4 11 3 20 0 20 -6 0 -6 -9 -11 -20 -11
-13 0 -20 -7 -20 -20 0 -15 6 -19 25 -18 22 2 26 7 23 33 -3 30 -30 47 -42 26z
m29 -41 c-3 -5 -10 -10 -16 -10 -5 0 -9 5 -9 10 0 6 7 10 16 10 8 0 12 -4 9
-10z"/>
<path d="M1005 3361 c-7 -22 3 -51 17 -51 6 0 5 6 -2 15 -13 16 -7 45 10 45 5
0 10 -15 10 -34 0 -28 -4 -36 -22 -39 -20 -5 -20 -5 2 -4 22 2 25 7 28 45 3
36 0 42 -17 42 -11 0 -22 -8 -26 -19z"/>
<path d="M1072 3343 c1 -37 1 -37 5 -5 3 18 10 32 18 32 8 0 16 -14 18 -32 l5
-33 -2 35 c-1 28 -5 36 -23 38 -21 3 -23 -1 -21 -35z"/>
<path d="M1144 3366 c-10 -26 0 -51 21 -51 16 0 20 7 20 30 0 33 -30 49 -41
21z m31 -21 c0 -10 -6 -20 -12 -22 -8 -3 -13 5 -13 22 0 17 5 25 13 23 6 -3
12 -13 12 -23z"/>
<path d="M1205 3370 c-9 -14 1 -27 25 -33 11 -3 18 -1 14 4 -3 5 -12 9 -20 9
-20 0 -18 18 4 23 15 4 15 5 0 6 -9 0 -20 -3 -23 -9z"/>
<path d="M1303 3345 c0 -22 2 -30 4 -17 2 12 2 30 0 40 -3 9 -5 -1 -4 -23z"/>
<path d="M1386 3362 c-9 -27 3 -52 25 -52 10 0 19 4 19 10 0 5 -6 7 -14 4 -8
-3 -17 -1 -21 5 -3 7 3 11 15 11 15 0 20 5 18 17 -5 25 -35 28 -42 5z m34 -2
c0 -5 -7 -10 -16 -10 -8 0 -12 5 -9 10 3 6 10 10 16 10 5 0 9 -4 9 -10z"/>
<path d="M1451 3343 c2 -35 2 -35 6 -8 3 16 10 33 16 37 8 5 6 8 -5 8 -14 0
-18 -8 -17 -37z"/>
<path d="M1523 3345 c0 -22 2 -30 4 -17 2 12 2 30 0 40 -3 9 -5 -1 -4 -23z"/>
<path d="M1552 3343 c1 -37 1 -37 5 -5 3 18 10 32 18 32 8 0 16 -14 18 -32 l5
-33 -2 35 c-1 28 -5 36 -23 38 -21 3 -23 -1 -21 -35z"/>
<path d="M1622 3343 c1 -38 1 -38 5 -5 5 40 25 38 35 -4 6 -27 6 -27 5 6 -2
28 -6 36 -24 38 -21 3 -23 -1 -21 -35z"/>
<path d="M1686 3362 c-12 -37 21 -72 39 -42 3 5 0 7 -8 4 -8 -3 -18 -1 -22 5
-3 7 3 11 15 11 15 0 20 5 18 17 -5 25 -35 28 -42 5z m34 -2 c0 -5 -7 -10 -16
-10 -8 0 -12 5 -9 10 3 6 10 10 16 10 5 0 9 -4 9 -10z"/>
<path d="M1752 3343 c1 -37 1 -37 5 -5 3 18 10 32 18 32 8 0 16 -14 18 -32 l5
-33 -2 35 c-1 28 -5 36 -23 38 -21 3 -23 -1 -21 -35z"/>
<path d="M1208 3318 c5 -5 16 -8 23 -6 8 3 3 7 -10 11 -17 4 -21 3 -13 -5z"/>
<path d="M4681 3353 c1 -27 4 -38 6 -25 3 13 12 22 23 22 10 0 21 4 24 9 3 4
-6 6 -19 3 -19 -3 -25 0 -25 13 0 13 6 16 25 13 14 -3 25 -1 25 3 0 5 -13 9
-30 9 -29 0 -30 -1 -29 -47z"/>
<path d="M4828 3390 c-5 -17 3 -80 11 -80 7 0 6 79 -2 86 -3 3 -7 0 -9 -6z"/>
<path d="M5018 3390 c-5 -17 3 -80 11 -80 7 0 6 79 -2 86 -3 3 -7 0 -9 -6z"/>
<path d="M4766 3371 c-3 -5 3 -7 14 -4 11 3 20 1 20 -5 0 -5 -9 -12 -20 -15
-30 -8 -26 -37 5 -35 22 2 26 7 23 33 -3 30 -30 47 -42 26z m29 -41 c-3 -5
-10 -10 -16 -10 -5 0 -9 5 -9 10 0 6 7 10 16 10 8 0 12 -4 9 -10z"/>
<path d="M4863 3345 c0 -22 2 -30 4 -17 2 12 2 30 0 40 -3 9 -5 -1 -4 -23z"/>
<path d="M4897 3374 c-4 -4 -7 -18 -7 -31 0 -26 26 -41 42 -25 8 8 5 9 -11 5
-12 -3 -21 -1 -21 6 0 6 9 11 21 11 14 0 19 5 17 17 -3 19 -29 29 -41 17z m28
-14 c3 -5 -1 -10 -9 -10 -9 0 -16 5 -16 10 0 6 4 10 9 10 6 0 13 -4 16 -10z"/>
<path d="M4951 3340 c1 -34 1 -34 8 -6 9 42 29 44 34 4 l4 -33 1 37 c2 35 0
38 -23 36 -22 -2 -25 -7 -24 -38z"/>
<path d="M5093 3345 c0 -22 2 -30 4 -17 2 12 2 30 0 40 -3 9 -5 -1 -4 -23z"/>
<path d="M5111 3340 c1 -34 1 -34 8 -6 9 42 29 44 34 4 l4 -33 1 37 c2 35 0
38 -23 36 -22 -2 -25 -7 -24 -38z"/>
<path d="M5182 3343 c1 -37 1 -37 5 -5 3 18 10 32 18 32 8 0 16 -14 18 -32 l5
-33 -2 35 c-1 28 -5 36 -23 38 -21 3 -23 -1 -21 -35z"/>
<path d="M5257 3374 c-4 -4 -7 -18 -7 -31 0 -26 26 -41 42 -25 8 8 5 9 -11 5
-12 -3 -21 -1 -21 6 0 6 9 11 21 11 14 0 19 5 17 17 -3 19 -29 29 -41 17z m28
-14 c3 -5 -1 -10 -9 -10 -9 0 -16 5 -16 10 0 6 4 10 9 10 6 0 13 -4 16 -10z"/>
<path d="M5311 3340 c1 -34 1 -34 8 -6 9 42 29 44 34 4 l4 -33 1 37 c2 35 0
38 -23 36 -22 -2 -25 -7 -24 -38z"/>
<path d="M3070 3369 c0 -5 5 -7 10 -4 6 3 10 8 10 11 0 2 -4 4 -10 4 -5 0 -10
-5 -10 -11z"/>
<path d="M3117 3374 c-4 -4 -7 -18 -7 -31 0 -26 26 -41 42 -25 8 8 5 9 -11 5
-12 -3 -21 -1 -21 6 0 6 9 11 21 11 14 0 19 5 17 17 -3 19 -29 29 -41 17z m28
-14 c3 -5 -1 -10 -9 -10 -9 0 -16 5 -16 10 0 6 4 10 9 10 6 0 13 -4 16 -10z"/>
<path d="M3175 3370 c-9 -14 1 -27 25 -33 11 -3 18 -1 14 4 -3 5 -12 9 -20 9
-20 0 -18 18 4 23 15 4 15 5 0 6 -9 0 -20 -3 -23 -9z"/>
<path d="M3277 3374 c-4 -4 -7 -18 -7 -31 0 -26 26 -41 42 -25 8 8 5 9 -11 5
-12 -3 -21 -1 -21 6 0 6 9 11 21 11 14 0 19 5 17 17 -3 19 -29 29 -41 17z m28
-14 c3 -5 -1 -10 -9 -10 -9 0 -16 5 -16 10 0 6 4 10 9 10 6 0 13 -4 16 -10z"/>
<path d="M3178 3318 c5 -5 16 -8 23 -6 8 3 3 7 -10 11 -17 4 -21 3 -13 -5z"/>
<path d="M4723 2255 c0 -27 2 -38 4 -22 2 15 2 37 0 50 -2 12 -4 0 -4 -28z"/>
<path d="M4750 2255 c0 -40 2 -45 23 -45 29 0 47 18 46 45 -1 17 -2 16 -8 -5
-4 -15 -15 -26 -29 -28 -19 -3 -22 1 -22 33 0 34 2 37 25 33 13 -3 22 -1 19 3
-3 5 -16 9 -30 9 -22 0 -24 -4 -24 -45z"/>
<path d="M4738 2193 c17 -2 47 -2 65 0 17 2 3 4 -33 4 -36 0 -50 -2 -32 -4z"/>
<path d="M6612 2288 c-15 -15 -16 -50 0 -66 14 -14 44 -16 52 -4 2 4 -8 8 -22
7 -23 0 -27 4 -27 30 0 33 30 48 47 23 8 -10 9 -10 5 2 -5 19 -39 24 -55 8z"/>
<path d="M6762 2255 c0 -39 2 -43 7 -21 8 37 31 47 31 13 0 -14 -5 -28 -10
-30 -6 -3 -5 -4 2 -3 19 4 17 61 -2 61 -8 0 -18 7 -22 15 -4 8 -6 -7 -6 -35z"/>
<path d="M7070 2291 c0 -5 -9 -11 -21 -14 -30 -8 -23 -62 9 -63 20 -1 22 3 22
42 0 24 -2 44 -5 44 -3 0 -5 -4 -5 -9z m-5 -46 c0 -10 -6 -20 -12 -22 -8 -3
-13 5 -13 22 0 17 5 25 13 23 6 -3 12 -13 12 -23z"/>
<path d="M7160 2257 c0 -26 3 -47 8 -47 8 0 7 78 -2 87 -3 4 -6 -15 -6 -40z"/>
<path d="M6694 2256 c-3 -14 -3 -30 1 -35 8 -14 32 -14 40 -1 3 5 0 7 -8 4 -8
-3 -18 -1 -22 5 -3 7 3 11 15 11 15 0 20 5 18 17 -5 29 -36 28 -44 -1z m36 4
c0 -5 -7 -10 -16 -10 -8 0 -12 5 -9 10 3 6 10 10 16 10 5 0 9 -4 9 -10z"/>
<path d="M6833 2248 c1 -26 7 -33 25 -34 19 -1 22 3 21 35 -1 35 -2 35 -8 7
-8 -40 -28 -44 -35 -7 l-6 31 3 -32z"/>
<path d="M6891 2243 c1 -28 3 -31 6 -13 3 14 10 31 15 38 8 9 6 12 -6 12 -12
0 -16 -9 -15 -37z"/>
<path d="M6970 2260 c0 -11 7 -20 15 -20 21 0 19 -18 -2 -23 -16 -4 -16 -5 -1
-6 24 -2 34 20 15 34 -21 15 -22 29 -1 21 8 -3 12 -2 9 4 -11 18 -35 11 -35
-10z"/>
<path d="M7096 2271 c-4 -5 3 -7 14 -4 11 3 20 1 20 -5 0 -5 -9 -12 -21 -15
-22 -6 -22 -29 -1 -33 7 -1 8 0 2 3 -15 7 -12 23 4 23 8 0 17 -8 19 -17 3 -10
5 -1 6 20 1 30 -2 37 -18 37 -11 0 -22 -4 -25 -9z"/>
<path d="M7193 2250 c2 -28 6 -36 25 -38 20 -3 22 1 20 35 -1 38 -1 38 -5 5
-5 -40 -25 -38 -35 4 -6 27 -6 27 -5 -6z"/>
<path d="M7263 2245 c0 -22 2 -30 4 -17 2 12 2 30 0 40 -3 9 -5 -1 -4 -23z"/>
<path d="M7288 2271 c6 -3 12 -20 15 -36 l4 -30 2 33 c0 17 5 32 10 32 6 0 12
-15 14 -32 l4 -33 1 37 c2 35 0 37 -29 36 -16 -1 -26 -4 -21 -7z"/>
<path d="M6648 2253 c7 -3 16 -2 19 1 4 3 -2 6 -13 5 -11 0 -14 -3 -6 -6z"/>
<path d="M1722 2203 c1 -38 2 -41 5 -15 4 28 7 31 19 21 13 -11 14 -9 3 14
-18 41 -29 32 -27 -20z"/>
<path d="M1782 2223 c-1 -17 -6 -33 -12 -35 -6 -2 -6 -9 0 -18 14 -23 22 -6
17 41 -3 33 -4 36 -5 12z"/>
<path d="M1816 2221 c-3 -5 3 -7 14 -4 11 3 20 0 20 -6 0 -6 -9 -11 -20 -11
-13 0 -20 -7 -20 -20 0 -15 6 -19 25 -18 22 2 26 7 23 33 -3 30 -30 47 -42 26z
m29 -41 c-3 -5 -10 -10 -16 -10 -5 0 -9 5 -9 10 0 6 7 10 16 10 8 0 12 -4 9
-10z"/>
<path d="M1871 2191 c1 -35 2 -35 8 -7 9 42 29 44 34 4 l5 -33 -2 35 c-1 29
-5 35 -23 36 -20 1 -23 -3 -22 -35z"/>
<path d="M1936 2215 c4 -8 8 -15 10 -15 2 0 4 7 4 15 0 8 -4 15 -10 15 -5 0
-7 -7 -4 -15z"/>
<path d="M1975 2220 c-11 -17 4 -60 20 -60 7 0 17 4 20 10 3 5 0 7 -8 4 -8 -3
-18 -1 -22 5 -3 7 3 11 15 11 15 0 20 5 18 17 -4 21 -33 29 -43 13z m35 -10
c0 -5 -7 -10 -16 -10 -8 0 -12 5 -9 10 3 6 10 10 16 10 5 0 9 -4 9 -10z"/>
<path d="M3097 1442 c6 -4 13 -25 16 -47 l4 -40 1 42 c2 30 7 43 20 46 9 3 1
5 -18 6 -19 0 -30 -3 -23 -7z"/>
<path d="M3278 1440 c-5 -17 3 -80 11 -80 7 0 6 79 -2 86 -3 3 -7 0 -9 -6z"/>
<path d="M3157 1424 c-4 -4 -7 -18 -7 -31 0 -26 26 -41 42 -25 8 8 5 9 -11 5
-12 -3 -21 -1 -21 6 0 6 9 11 21 11 14 0 19 5 17 17 -3 19 -29 29 -41 17z m33
-14 c0 -5 -7 -10 -15 -10 -8 0 -15 5 -15 10 0 6 7 10 15 10 8 0 15 -4 15 -10z"/>
<path d="M3220 1415 c0 -9 7 -18 15 -21 20 -8 19 -21 -2 -27 -16 -4 -16 -5 -1
-6 24 -2 34 20 15 34 -21 15 -22 29 -1 21 8 -3 12 -2 9 4 -10 16 -35 12 -35
-5z"/>
<path d="M3314 1418 c-4 -6 0 -16 9 -23 21 -15 22 -29 2 -21 -8 3 -15 1 -15
-4 0 -14 27 -12 36 2 4 6 0 16 -9 23 -21 15 -22 29 -2 21 8 -3 15 -1 15 4 0
14 -27 12 -36 -2z"/>
<path d="M1800 655 c0 -45 1 -46 28 -43 24 3 27 7 27 43 0 36 -3 40 -27 43
-27 3 -28 2 -28 -43z m45 0 c0 -20 -6 -31 -17 -33 -15 -3 -18 4 -18 33 0 29 3
36 18 33 11 -2 17 -13 17 -33z"/>
<path d="M1948 690 c-5 -17 3 -80 11 -80 7 0 6 79 -2 86 -3 3 -7 0 -9 -6z"/>
<path d="M1886 671 c-3 -5 3 -7 14 -4 11 3 20 1 20 -5 0 -5 -9 -12 -20 -15
-30 -8 -26 -37 5 -35 22 2 26 7 23 33 -3 30 -30 47 -42 26z m29 -41 c-3 -5
-10 -10 -16 -10 -5 0 -9 5 -9 10 0 6 7 10 16 10 8 0 12 -4 9 -10z"/>
<path d="M1983 648 c1 -26 7 -33 25 -34 19 -1 22 3 21 35 -1 35 -2 35 -8 7 -8
-40 -28 -44 -35 -7 l-6 31 3 -32z"/>
<path d="M2053 645 c0 -22 2 -30 4 -17 2 12 2 30 0 40 -3 9 -5 -1 -4 -23z"/>
<path d="M2076 669 c3 -5 14 -7 24 -4 15 5 20 0 23 -22 4 -28 4 -28 3 2 -1 25
-5 30 -29 32 -16 1 -25 -2 -21 -8z"/>
<path d="M4047 692 c6 -4 13 -25 16 -47 l4 -40 1 42 c2 30 7 43 20 46 9 3 1 5
-18 6 -19 0 -30 -3 -23 -7z"/>
<path d="M4228 690 c-5 -17 3 -80 11 -80 7 0 6 79 -2 86 -3 3 -7 0 -9 -6z"/>
<path d="M4502 655 c0 -39 2 -43 7 -21 8 37 31 47 31 13 0 -14 -5 -28 -10 -30
-6 -3 -5 -4 2 -3 19 4 17 61 -2 61 -8 0 -18 7 -22 15 -4 8 -6 -7 -6 -35z"/>
<path d="M4107 674 c-4 -4 -7 -18 -7 -31 0 -26 26 -41 42 -25 8 8 5 9 -11 5
-12 -3 -21 -1 -21 6 0 6 9 11 21 11 14 0 19 5 17 17 -3 19 -29 29 -41 17z m33
-14 c0 -5 -7 -10 -15 -10 -8 0 -15 5 -15 10 0 6 7 10 15 10 8 0 15 -4 15 -10z"/>
<path d="M4170 665 c0 -9 7 -18 15 -21 20 -8 19 -21 -2 -27 -16 -4 -16 -5 -1
-6 24 -2 34 20 15 34 -21 15 -22 29 -1 21 8 -3 12 -2 9 4 -10 16 -35 12 -35
-5z"/>
<path d="M4267 674 c-4 -4 -7 -18 -7 -31 0 -26 26 -41 42 -25 8 8 5 9 -11 5
-12 -3 -21 -1 -21 6 0 6 9 11 21 11 14 0 19 5 17 17 -3 19 -29 29 -41 17z m33
-14 c0 -5 -7 -10 -15 -10 -8 0 -15 5 -15 10 0 6 7 10 15 10 8 0 15 -4 15 -10z"/>
<path d="M4331 643 c2 -35 2 -35 6 -8 3 16 10 33 16 37 8 5 6 8 -5 8 -14 0
-18 -8 -17 -37z"/>
<path d="M4374 666 c-9 -25 1 -51 19 -50 24 2 21 -5 -5 -16 -23 -9 -23 -9 -2
-9 24 -1 34 16 34 60 0 22 -5 29 -20 29 -11 0 -23 -6 -26 -14z m31 -21 c0 -10
-6 -20 -12 -22 -8 -3 -13 5 -13 22 0 17 5 25 13 23 6 -3 12 -13 12 -23z"/>
<path d="M4436 662 c-12 -37 21 -72 39 -42 3 5 0 7 -8 4 -8 -3 -18 -1 -22 5
-3 7 3 11 15 11 15 0 20 5 18 17 -5 25 -35 28 -42 5z m34 -2 c0 -5 -7 -10 -16
-10 -8 0 -12 5 -9 10 3 6 10 10 16 10 5 0 9 -4 9 -10z"/>
<path d="M4572 643 c1 -38 1 -38 5 -5 5 40 25 38 35 -4 6 -27 6 -27 5 6 -2 28
-6 36 -24 38 -21 3 -23 -1 -21 -35z"/>
<path d="M4633 645 c0 -22 2 -30 4 -17 2 12 2 30 0 40 -3 9 -5 -1 -4 -23z"/>
<path d="M4664 668 c-4 -6 0 -16 9 -23 21 -15 22 -29 2 -21 -8 3 -15 1 -15 -4
0 -14 27 -12 36 2 4 6 0 16 -9 23 -21 15 -22 29 -2 21 8 -3 15 -1 15 4 0 14
-27 12 -36 -2z"/>
<path d="M2942 493 c12 -3 18 -17 21 -46 l4 -42 1 42 c2 30 7 43 20 46 9 3 -1
5 -23 5 -22 0 -32 -2 -23 -5z"/>
<path d="M3128 490 c-5 -17 3 -80 11 -80 7 0 6 79 -2 86 -3 3 -7 0 -9 -6z"/>
<path d="M3393 455 c0 -27 2 -38 4 -22 2 15 2 37 0 50 -2 12 -4 0 -4 -28z"/>
<path d="M3007 474 c-4 -4 -7 -18 -7 -31 0 -26 26 -41 42 -25 8 8 5 9 -11 5
-12 -3 -21 -1 -21 6 0 6 9 11 21 11 14 0 19 5 17 17 -3 19 -29 29 -41 17z m28
-14 c3 -5 -1 -10 -9 -10 -9 0 -16 5 -16 10 0 6 4 10 9 10 6 0 13 -4 16 -10z"/>
<path d="M3070 465 c0 -9 7 -18 15 -21 20 -8 19 -21 -2 -27 -16 -4 -16 -5 -1
-6 24 -2 34 20 15 34 -21 15 -22 29 -1 21 8 -3 12 -2 9 4 -10 16 -35 12 -35
-5z"/>
<path d="M3160 431 c0 -25 4 -41 8 -35 4 6 15 13 25 17 28 10 19 62 -10 63
-21 1 -23 -3 -23 -45z m40 14 c0 -16 -6 -25 -15 -25 -15 0 -21 31 -8 43 13 14
23 6 23 -18z"/>
<path d="M3231 443 c2 -35 2 -35 6 -8 3 16 10 33 16 37 8 5 6 8 -5 8 -14 0
-18 -8 -17 -37z"/>
<path d="M3274 466 c-10 -26 0 -51 21 -51 16 0 20 7 20 30 0 33 -30 49 -41 21z
m31 -21 c0 -10 -6 -20 -12 -22 -8 -3 -13 5 -13 22 0 17 5 25 13 23 6 -3 12
-13 12 -23z"/>
<path d="M3338 445 c2 -19 5 -35 7 -35 2 0 5 16 7 35 2 21 0 35 -7 35 -7 0 -9
-14 -7 -35z"/>
<path d="M3373 445 c0 -22 2 -30 4 -17 2 12 2 30 0 40 -3 9 -5 -1 -4 -23z"/>
<path d="M2983 393 c31 -2 83 -2 115 0 31 2 5 3 -58 3 -63 0 -89 -1 -57 -3z"/>
<path d="M3238 393 c34 -2 88 -2 120 0 31 2 3 3 -63 3 -66 0 -92 -1 -57 -3z"/>
<path d="M2159 3493 c-8 -10 -9 -14 -2 -10 8 5 13 -5 16 -30 3 -35 4 -34 5 10
2 52 1 55 -19 30z"/>
<path d="M4142 3453 c1 -38 1 -38 5 -5 5 40 25 38 35 -4 6 -27 6 -27 5 6 -2
28 -6 36 -24 38 -21 3 -23 -1 -21 -35z"/>
<path d="M3359 3093 c-8 -10 -9 -14 -2 -10 8 5 13 -5 16 -30 3 -35 4 -34 5 10
2 52 1 55 -19 30z"/>
<path d="M5704 2542 c-135 -40 -228 -108 -270 -197 -54 -113 -8 -230 123 -313
88 -56 173 -77 308 -77 168 0 268 34 369 125 47 43 86 121 86 175 0 80 -68
178 -160 233 -110 65 -331 91 -456 54z m337 -15 c122 -39 203 -99 243 -179 32
-65 33 -118 2 -183 -37 -81 -135 -150 -261 -186 -66 -18 -254 -18 -320 0 -122
35 -219 103 -259 183 -33 67 -33 119 0 186 43 87 133 148 269 184 82 21 251
18 326 -5z"/>
<path d="M5660 2280 c-21 -40 12 -80 54 -64 25 10 20 44 -6 43 -18 -1 -19 -2
-5 -6 23 -6 17 -28 -8 -28 -29 0 -43 31 -22 52 15 15 20 16 40 4 20 -13 21
-13 8 2 -18 23 -48 21 -61 -3z"/>
<path d="M5992 2255 c1 -37 2 -41 5 -17 5 40 25 38 34 -4 l7 -29 1 33 c1 23
-4 35 -16 39 -10 4 -21 11 -25 17 -4 6 -7 -11 -6 -39z"/>
<path d="M5757 2274 c-4 -4 -7 -18 -7 -31 0 -26 26 -41 42 -25 8 8 5 9 -11 5
-12 -3 -21 -1 -21 6 0 6 9 11 21 11 14 0 19 5 17 17 -3 19 -29 29 -41 17z m28
-14 c3 -5 -1 -10 -9 -10 -9 0 -16 5 -16 10 0 6 4 10 9 10 6 0 13 -4 16 -10z"/>
<path d="M5811 2264 c0 -11 3 -14 6 -6 3 7 2 16 -1 19 -3 4 -6 -2 -5 -13z"/>
<path d="M5840 2275 c0 -5 5 -17 10 -25 5 -8 10 -10 10 -5 0 6 -5 17 -10 25
-5 8 -10 11 -10 5z"/>
<path d="M5903 2245 c0 -22 2 -30 4 -17 2 12 2 30 0 40 -3 9 -5 -1 -4 -23z"/>
<path d="M5937 2273 c-4 -3 -7 -17 -7 -30 0 -26 26 -41 42 -25 8 8 5 9 -11 5
-17 -4 -21 -1 -21 20 0 16 7 27 18 30 14 4 14 5 1 6 -9 0 -19 -2 -22 -6z"/>
<path d="M5871 2253 c-1 -6 -4 -20 -7 -30 -5 -17 -5 -17 6 0 6 10 9 23 6 30
-3 9 -5 9 -5 0z"/>
<path d="M5827 2233 c-4 -3 -7 -11 -7 -17 0 -6 5 -5 12 2 6 6 9 14 7 17 -3 3
-9 2 -12 -2z"/>
<path d="M181 2253 c1 -26 4 -38 6 -26 3 13 13 23 26 25 34 5 29 42 -5 46 -27
3 -28 2 -27 -45z m49 22 c0 -8 -9 -15 -20 -15 -11 0 -20 7 -20 15 0 8 9 15 20
15 11 0 20 -7 20 -15z"/>
<path d="M267 2274 c-4 -4 -7 -18 -7 -31 0 -26 26 -41 42 -25 8 8 5 9 -11 5
-12 -3 -21 -1 -21 6 0 6 9 11 21 11 14 0 19 5 17 17 -3 19 -29 29 -41 17z m28
-14 c3 -5 -1 -10 -9 -10 -9 0 -16 5 -16 10 0 6 4 10 9 10 6 0 13 -4 16 -10z"/>
<path d="M330 2265 c0 -8 2 -15 4 -15 2 0 6 7 10 15 3 8 1 15 -4 15 -6 0 -10
-7 -10 -15z"/>
<path d="M365 2270 c-8 -14 3 -30 21 -30 8 0 14 -5 14 -11 0 -7 -9 -9 -21 -6
-16 4 -19 3 -11 -5 12 -12 42 -4 42 13 0 6 -9 13 -20 16 -11 3 -20 10 -20 15
0 6 9 8 20 5 11 -3 18 -1 14 4 -7 12 -31 11 -39 -1z"/>
<path d="M435 2271 c-3 -6 0 -8 8 -5 19 7 29 -9 21 -31 -4 -10 -13 -14 -23
-10 -13 5 -14 4 -3 -6 19 -20 51 15 36 38 -13 21 -30 27 -39 14z"/>
<path d="M491 2243 c1 -36 2 -36 8 -9 9 42 29 44 34 4 l4 -33 1 38 c2 33 0 37
-23 37 -22 0 -25 -4 -24 -37z"/>
<path d="M566 2271 c-3 -5 3 -7 14 -4 11 3 20 0 20 -6 0 -6 -9 -11 -20 -11
-13 0 -20 -7 -20 -20 0 -15 6 -19 25 -18 22 2 26 7 23 33 -3 30 -30 47 -42 26z
m29 -41 c-3 -5 -10 -10 -16 -10 -5 0 -9 5 -9 10 0 6 7 10 16 10 8 0 12 -4 9
-10z"/>
<path d="M651 2243 c1 -36 2 -36 8 -9 9 42 29 44 34 4 l4 -33 1 38 c2 33 0 37
-23 37 -22 0 -25 -4 -24 -37z"/>
<path d="M723 2248 c1 -26 7 -33 25 -34 19 -1 22 3 21 35 -1 35 -2 35 -8 7 -8
-40 -28 -44 -35 -7 l-6 31 3 -32z"/>
<path d="M794 2269 c-3 -6 -3 -13 0 -16 3 -4 6 -1 6 5 0 28 20 9 21 -20 l1
-33 7 29 c9 42 29 44 34 4 l5 -33 -2 35 c-1 31 -4 35 -33 37 -18 2 -35 -2 -39
-8z"/>
<path d="M894 2269 c-3 -6 -3 -13 0 -16 3 -4 6 -1 6 5 0 28 20 9 21 -20 l1
-33 7 29 c9 42 29 44 34 4 l5 -33 -2 35 c-1 31 -4 35 -33 37 -18 2 -35 -2 -39
-8z"/>
<path d="M990 2265 c-16 -19 -3 -55 21 -55 10 0 19 5 19 11 0 5 -4 7 -10 4 -5
-3 -16 -3 -22 2 -9 5 -3 10 17 14 l30 7 -28 1 c-17 1 -26 5 -22 12 4 6 14 8
22 5 8 -3 11 -1 8 4 -9 14 -21 12 -35 -5z"/>
<path d="M1051 2243 c1 -28 3 -31 6 -13 3 14 10 31 15 38 8 9 6 12 -6 12 -12
0 -16 -9 -15 -37z"/>
<path d="M1131 2219 c0 -14 -13 -48 -27 -76 -43 -88 -135 -156 -267 -199 -40
-13 -65 -23 -56 -24 25 0 128 38 178 66 99 57 187 172 178 232 l-4 27 -2 -26z"/>
<path d="M398 2193 c128 -2 335 -2 460 0 125 1 20 2 -233 2 -253 0 -355 -1
-227 -2z"/>
<path d="M3359 1843 c-8 -10 -9 -14 -2 -10 8 5 13 -5 16 -30 3 -35 4 -34 5 10
2 52 1 55 -19 30z"/>
</g>
</svg>
